<?xml version="1.0" encoding="UTF-8"?>
<svg version="1.1" xmlns="http://www.w3.org/2000/svg" width="500" height="500">
<path d="M0 0 C0.66 0 1.32 0 2 0 C2.88104554 2.0486207 3.76140855 4.09753159 4.64111328 6.14672852 C5.43421328 7.99393413 6.22818432 9.84076596 7.02294922 11.68725586 C9.31791029 17.0311358 11.58081605 22.38621509 13.80078125 27.76171875 C14.50593872 29.45868896 14.50593872 29.45868896 15.2253418 31.18994141 C16.1334813 33.37815685 17.03508756 35.56909949 17.92895508 37.76318359 C21.99492424 47.52609958 26.50209961 57.30798138 34.25 64.6875 C35.19359375 65.58726562 36.1371875 66.48703125 37.109375 67.4140625 C40.72539591 70.64893526 44.4454384 73.72155858 48.23828125 76.74609375 C52.11116399 79.90684812 55.77016576 83.2816234 59.44921875 86.6640625 C61.60818752 88.64118858 63.78897727 90.58167885 66 92.5 C69.15558345 95.23783819 72.23703636 98.04748746 75.3125 100.875 C78.91391171 104.16432238 82.57307275 107.32017636 86.375 110.375 C91.80891009 114.75944247 96.89826018 119.45500063 102 124.21484375 C104.95221408 126.96736006 107.96685674 129.63790229 111.02734375 132.26953125 C112.56295019 133.61660779 114.07056941 134.99561325 115.56640625 136.38671875 C116.45199219 137.20785156 117.33757812 138.02898437 118.25 138.875 C119.05953125 139.63554687 119.8690625 140.39609375 120.703125 141.1796875 C123.53356892 143.52975055 123.53356892 143.52975055 127 144 C129.30265106 142.68547111 131.35768044 141.35066604 133.5 139.8125 C146.71779132 130.79538851 162.01068531 127.8280227 177.7734375 130.68359375 C188.95314396 133.65744503 199.59572213 138.90972811 208 147 C209.24609375 149.2109375 209.24609375 149.2109375 210 151 C204.32251493 153.24468126 198.72099659 154.93438039 192.78515625 156.33984375 C191.02925171 156.7673927 189.27339375 157.19513295 187.51757812 157.62304688 C184.78889467 158.28198212 182.05960308 158.93819221 179.3293457 159.59057617 C176.66693405 160.2287779 174.00724799 160.87750567 171.34765625 161.52734375 C170.54425308 161.71602524 169.74084991 161.90470673 168.9131012 162.09910583 C153.54229157 165.87511314 142.2812815 174.28593377 131 185 C127.32009871 188.31472025 123.55389292 191.52924432 119.78515625 194.7421875 C113.24541613 200.32115544 106.78607465 205.95606952 100.44921875 211.765625 C97.67558709 214.29595564 94.85519935 216.76628834 92.01953125 219.2265625 C89.69458623 221.268197 87.41188163 223.35334349 85.125 225.4375 C80.25033071 229.84286883 75.17735034 233.95726048 70 238 C75.47957074 243.53945676 81.19081005 248.80936395 87 254 C87.86367188 254.77601563 88.72734375 255.55203125 89.6171875 256.3515625 C98.93575267 264.30062608 108.03916791 266.93846605 120.19921875 266.37109375 C130.34619744 265.38038154 137.30502027 260.58685092 144 253 C149.78893999 244.3504831 152.04426039 234.31974975 151 224 C150.02790879 219.54260615 148.78670442 215.16842893 147.23046875 210.87890625 C147 209 147 209 148.046875 207.39453125 C148.60890625 206.87246094 149.1709375 206.35039062 149.75 205.8125 C150.39066406 205.214375 151.03132812 204.61625 151.69140625 204 C155.20933872 200.9523157 158.80832849 198.01260404 162.44921875 195.11328125 C165.02157366 193.06926156 165.02157366 193.06926156 167.14453125 190.73046875 C169 189 169 189 172 189 C182.69289426 208.78185438 186.27695506 229.19451356 180 251 C177.27904375 259.70107989 173.71503281 266.89670011 168 274 C167.34257812 274.83273437 166.68515625 275.66546875 166.0078125 276.5234375 C154.78714109 289.88137966 139.439215 298.24878176 122 300 C103.22535522 301.33254767 85.27223942 295.77814994 71.0234375 283.41796875 C68.9823804 281.55236921 66.97295536 279.6548279 64.96484375 277.75390625 C62.27046577 275.21559702 59.45440187 272.87518205 56.5625 270.5625 C51.14091657 266.19859541 46.07157883 261.5157847 40.984375 256.7734375 C36.36646239 252.46894486 31.59238393 248.35687595 26.7890625 244.26171875 C20.24344569 238.67681067 13.77960493 233.03446039 7.43359375 227.22265625 C2.95076466 223.12838698 -1.63779399 219.16148705 -6.25390625 215.21875 C-12.48150217 209.8989371 -18.66776657 204.55101642 -24.734375 199.046875 C-28.11923712 195.98882715 -31.55636722 192.99153574 -35 190 C-39.61794188 191.2594387 -42.04965794 193.84638486 -45.23828125 197.21484375 C-47 199 -47 199 -50.125 201.375 C-57.66096143 208.25566044 -60.94444628 218.7870744 -61.4375 228.8125 C-60.97967291 240.79230886 -56.82740151 250.6742035 -48.0859375 258.7734375 C-39.06510957 266.14104597 -29.40924998 267.08602693 -18 266 C-11.8670219 264.55563922 -6.59437699 262.4359502 -2 258 C3.64543973 262.0169475 8.74121489 266.39675922 13.78613281 271.12817383 C16.41963692 273.59089128 19.06124546 275.90788665 22 278 C21.89453125 279.69140625 21.89453125 279.69140625 21 282 C18.9251558 283.8202984 16.9444733 285.37796942 14.6875 286.9375 C14.05521484 287.37843994 13.42292969 287.81937988 12.77148438 288.27368164 C-2.6035031 298.69651981 -20.31611487 302.04971251 -38.5 298.8125 C-56.97849379 294.72500443 -71.24787585 284.6662219 -82.03515625 269.0546875 C-92.23684605 252.4634043 -95.55067008 232.88566325 -91.8125 213.8125 C-86.74668143 193.10154871 -75.15853997 178.41933542 -59 165 C-56.72346103 163.06916308 -54.455338 161.12854358 -52.1875 159.1875 C-51.58147949 158.67018311 -50.97545898 158.15286621 -50.35107422 157.61987305 C-46.60925534 154.41538456 -42.93894001 151.14799353 -39.3125 147.8125 C-35.83863691 144.62263156 -32.30089975 141.57951106 -28.625 138.625 C-23.18613395 134.23655873 -18.09271096 129.53553588 -12.984375 124.7734375 C-6.56015939 118.78523653 0.16483771 113.13762857 6.83618164 107.42871094 C11.25082602 103.64935782 15.64153609 99.84411103 20 96 C16.98060773 92.91977748 13.89826972 90.0008623 10.64892578 87.15942383 C-2.63800274 75.41575439 -9.87001478 61.12780376 -11.81640625 43.4296875 C-12.63794107 28.08271792 -9.21659856 14.02014848 -1 1 C-0.67 0.67 -0.34 0.34 0 0 Z M44 117 C43.62230469 117.40089844 43.24460938 117.80179687 42.85546875 118.21484375 C38.48376247 122.72988467 33.79399013 126.66665335 28.90234375 130.60546875 C24.99581756 133.8284843 21.27823066 137.23712881 17.55078125 140.6640625 C15.39181248 142.64118858 13.21102273 144.58167885 11 146.5 C6.83731923 150.11675542 2.77320423 153.83866727 -1.30078125 157.5546875 C-4.82730331 160.74948173 -8.40178976 163.88636249 -12 167 C-7.23384825 171.92502347 -2.10798056 176.43478885 3 181 C4.70873972 182.54121622 6.41708175 184.0828735 8.125 185.625 C15.24461466 192.02824476 22.48783976 198.27769835 29.76513672 204.50024414 C34.56229739 208.60884516 39.30393681 212.77602782 44 217 C47.86242919 215.4020683 50.58216189 212.77849763 53.5625 209.9375 C57.43675897 206.31013008 61.35785875 202.82453427 65.5 199.5 C70.6074942 195.3874722 75.41673914 191.01718532 80.22265625 186.5625 C83.09675569 183.91072893 86.02239274 181.3310582 88.9765625 178.76953125 C93.02684072 175.22749258 97.00805038 171.60747906 101 168 C99.44298875 164.10747188 96.98565894 161.93857023 93.875 159.1875 C93.37782471 158.74519043 92.88064941 158.30288086 92.3684082 157.84716797 C90.91744346 156.55893043 89.45888137 155.27926533 88 154 C87.33613281 153.41089844 86.67226563 152.82179687 85.98828125 152.21484375 C82.94641494 149.5292915 79.86913548 146.88627514 76.78125 144.25390625 C69.3998778 137.95800002 62.15875279 131.54901675 55 125 C53.50560336 123.63965223 52.00615172 122.28482118 50.5 120.9375 C49.8915625 120.38964844 49.283125 119.84179688 48.65625 119.27734375 C46.91336357 117.78836796 46.91336357 117.78836796 44 117 Z " fill="#906BF1" transform="translate(205,86)"/>
<path d="M0 0 C6.57422296 4.88879319 6.57422296 4.88879319 8.390625 9.19921875 C2.71313993 11.44390001 -2.88837841 13.13359914 -8.82421875 14.5390625 C-10.58012329 14.96661145 -12.33598125 15.3943517 -14.09179688 15.82226562 C-16.82048033 16.48120087 -19.54977192 17.13741096 -22.2800293 17.78979492 C-24.94244095 18.42799665 -27.60212701 19.07672442 -30.26171875 19.7265625 C-31.06512192 19.91524399 -31.86852509 20.10392548 -32.6962738 20.29832458 C-48.06708343 24.07433189 -59.3280935 32.48515252 -70.609375 43.19921875 C-74.28927629 46.513939 -78.05548208 49.72846307 -81.82421875 52.94140625 C-88.36395887 58.52037419 -94.82330035 64.15528827 -101.16015625 69.96484375 C-103.93513956 72.49640747 -106.75707923 74.96778015 -109.59375 77.4296875 C-111.89545264 79.45036831 -114.15701879 81.51234493 -116.421875 83.57421875 C-121.66459876 88.31142327 -127.10350888 92.77149752 -132.609375 97.19921875 C-139.74545836 91.97226938 -146.42896242 86.54227377 -152.609375 80.19921875 C-154.27481301 78.53132434 -155.94132348 76.86449942 -157.609375 75.19921875 C-156.95453125 74.67714844 -156.2996875 74.15507812 -155.625 73.6171875 C-149.32353886 68.53507689 -143.30779603 63.24794438 -137.37109375 57.75 C-132.80976258 53.53705905 -128.11915208 49.48488981 -123.39453125 45.45703125 C-119.7892898 42.38284822 -116.1950673 39.29617831 -112.609375 36.19921875 C-112.04589355 35.71388672 -111.48241211 35.22855469 -110.90185547 34.72851562 C-109.33736853 33.37408633 -107.78420664 32.00787177 -106.234375 30.63671875 C-105.33976562 29.85167969 -104.44515625 29.06664062 -103.5234375 28.2578125 C-101.26890967 26.30153658 -101.26890967 26.30153658 -101.609375 23.19921875 C-100.949375 23.19921875 -100.289375 23.19921875 -99.609375 23.19921875 C-99.609375 23.85921875 -99.609375 24.51921875 -99.609375 25.19921875 C-93.79777641 20.54544347 -88.06784522 15.81158829 -82.484375 10.88671875 C-81.57429688 10.08621094 -80.66421875 9.28570312 -79.7265625 8.4609375 C-77.47047553 6.43224616 -77.47047553 6.43224616 -77.1171875 4.03125 C-76.94960938 3.42667969 -76.78203125 2.82210937 -76.609375 2.19921875 C-74.36328125 1.16015625 -74.36328125 1.16015625 -71.609375 0.19921875 C-69.90222372 -0.89573136 -68.21555859 -2.02305564 -66.546875 -3.17578125 C-45.42774065 -16.89321628 -20.10326587 -13.87366103 0 0 Z " fill="#6FD2D8" transform="translate(406.609375,227.80078125)"/>
<path d="M0 0 C5.47638053 2.52047483 6.79901509 6.54629373 9 12 C15.56999392 31.77568169 15.66810298 49.43472062 6.40234375 68.390625 C5 71 5 71 3 74 C-1.55018818 73.14026165 -4.02708094 70.44973052 -7.25 67.3125 C-11.95493829 62.84019072 -16.68603608 58.75103335 -22 55 C-21.43043546 49.37668024 -19.31668226 44.91630761 -16.9375 39.875 C-13.28679254 31.96917304 -9.9097533 23.99839931 -6.73999023 15.88818359 C-4.63786098 10.52273825 -2.38271808 5.24697466 0 0 Z " fill="#916EF0" transform="translate(293,86)"/>
<path d="M0 0 C0.83595703 0.00451172 1.67191406 0.00902344 2.53320312 0.01367188 C4.58466649 0.02539452 6.63609273 0.04332797 8.6875 0.0625 C8.6875 4.0625 8.6875 4.0625 6.88671875 6.10546875 C6.05785156 6.81316406 5.22898438 7.52085937 4.375 8.25 C3.01181641 9.425625 3.01181641 9.425625 1.62109375 10.625 C-2.17475303 13.77893927 -5.99301726 16.90158353 -9.859375 19.96875 C-11.99416391 21.79079914 -13.58357402 23.56400163 -15.3125 25.75 C-18.3125 28.0625 -18.3125 28.0625 -20.58984375 28.12109375 C-23.57928334 27.63382827 -26.39883971 26.89296356 -29.3125 26.0625 C-30.66064255 25.71040319 -32.00965114 25.36161055 -33.359375 25.015625 C-37.02123815 24.06843568 -40.66834567 23.07558474 -44.3125 22.0625 C-44.3125 18.0625 -44.3125 18.0625 -41.5 15.25 C-28.87430424 5.23564292 -16.13599411 -0.16556269 0 0 Z " fill="#74D4D9" transform="translate(130.3125,215.9375)"/>
<path d="M0 0 C-0.33 0.99 -0.66 1.98 -1 3 C-4.3 3.33 -7.6 3.66 -11 4 C-11.06445312 4.78117188 -11.12890625 5.56234375 -11.1953125 6.3671875 C-12 9 -12 9 -14.1796875 10.2578125 C-15.06914063 10.54398438 -15.95859375 10.83015625 -16.875 11.125 C-20.43642258 12.29829665 -22.43716898 13.28370605 -25 16 C-25.66 16 -26.32 16 -27 16 C-27 16.99 -27 17.98 -27 19 C-26.05125 18.938125 -25.1025 18.87625 -24.125 18.8125 C-23.09375 18.874375 -22.0625 18.93625 -21 19 C-20.34 19.99 -19.68 20.98 -19 22 C-27.57142857 21.14285714 -27.57142857 21.14285714 -31 19 C-27.15818137 9.7052775 -15.65625564 4.80769845 -7 1 C-4 0 -4 0 0 0 Z " fill="#74D0D2" transform="translate(116,218)"/>
<path d="M0 0 C0.33 0.66 0.66 1.32 1 2 C0.33333333 4 -0.33333333 6 -1 8 C-0.67 8.66 -0.34 9.32 0 10 C-1.28913487 10.67154933 -2.58140204 11.33708859 -3.875 12 C-4.59429687 12.37125 -5.31359375 12.7425 -6.0546875 13.125 C-8 14 -8 14 -10 14 C-11.485 14.7734375 -11.485 14.7734375 -13 15.5625 C-13.99 16.036875 -14.98 16.51125 -16 17 C-16.66 16.67 -17.32 16.34 -18 16 C-15.75297964 13.89263258 -13.50186569 11.78968811 -11.25 9.6875 C-10.29867187 8.79514648 -10.29867187 8.79514648 -9.328125 7.88476562 C-6.32579774 5.08572094 -3.37142346 2.35829368 0 0 Z " fill="#9374ED" transform="translate(199,205)"/>
<path d="M0 0 C3.80797391 1.45336318 4.96067277 3.17908118 6.6875 6.8125 C7.10386719 7.66457031 7.52023437 8.51664063 7.94921875 9.39453125 C8.97444562 11.93663655 9.55903005 14.30087623 10 17 C7.33333333 14.33333333 4.66666667 11.66666667 2 9 C1.34 9.66 0.68 10.32 0 11 C-0.99 11 -1.98 11 -3 11 C-2.53199289 6.94393835 -2.12046792 3.53411321 0 0 Z " fill="#9A7FEC" transform="translate(293,86)"/>
<path d="M0 0 C2.97 0.99 5.94 1.98 9 3 C9.33 4.65 9.66 6.3 10 8 C11.65 8.33 13.3 8.66 15 9 C15 9.66 15 10.32 15 11 C15.99 11 16.98 11 18 11 C18 12.32 18 13.64 18 15 C19.32 15 20.64 15 22 15 C22 15.99 22 16.98 22 18 C22.99 18 23.98 18 25 18 C25.33 19.65 25.66 21.3 26 23 C16.51865181 16.36305627 8.11198758 8.23246264 0 0 Z " fill="#A994EA" transform="translate(222,321)"/>
<path d="M0 0 C1.65 0 3.3 0 5 0 C1.23160732 6.66623895 -3.91623449 13.67818297 -10.8125 17.3125 C-14.25363818 19.13427903 -15.62518562 20.99190178 -18 24 C-20.5 25.1875 -20.5 25.1875 -23 26 C-24.34050052 26.65213539 -25.67661368 27.31379969 -27 28 C-26.2575 27.1028125 -26.2575 27.1028125 -25.5 26.1875 C-23.71723582 24.02970006 -23.71723582 24.02970006 -24 21 C-23.34 21 -22.68 21 -22 21 C-22 21.66 -22 22.32 -22 23 C-16.17813486 18.33800354 -10.42825633 13.5958169 -4.8125 8.6875 C-3.89082031 7.88699219 -2.96914063 7.08648437 -2.01953125 6.26171875 C0.44402758 4.00808027 0.44402758 4.00808027 0 0 Z " fill="#95C8EA" transform="translate(329,230)"/>
<path d="M0 0 C2.475 0.495 2.475 0.495 5 1 C1.64243855 2.87277203 -1.68804932 3.79755764 -5.41015625 4.7265625 C-6.64701172 5.0359375 -7.88386719 5.3453125 -9.15820312 5.6640625 C-9.79894775 5.82165039 -10.43969238 5.97923828 -11.09985352 6.14160156 C-13.0610143 6.62463407 -15.01982098 7.11644871 -16.97851562 7.609375 C-26.6063058 10 -26.6063058 10 -30 10 C-29.67 9.01 -29.34 8.02 -29 7 C-26.63359474 6.11947711 -24.45749167 5.54699008 -22 5 C-20.91203125 4.73960937 -19.8240625 4.47921875 -18.703125 4.2109375 C-12.34613065 2.75128429 -6.52392959 1.60856422 0 2 C0 1.34 0 0.68 0 0 Z " fill="#9EDEE2" transform="translate(394,240)"/>
<path d="M0 0 C0.66 0.33 1.32 0.66 2 1 C1.12214844 1.89203125 0.24429687 2.7840625 -0.66015625 3.703125 C-1.79492689 4.88478699 -2.92900591 6.06711343 -4.0625 7.25 C-4.64322266 7.83652344 -5.22394531 8.42304688 -5.82226562 9.02734375 C-6.36689453 9.60097656 -6.91152344 10.17460937 -7.47265625 10.765625 C-7.98062744 11.28930664 -8.48859863 11.81298828 -9.01196289 12.35253906 C-10.20330313 13.97245978 -10.20330313 13.97245978 -9.81811523 16.03027344 C-8.57379849 19.02613959 -6.35272448 20.82825432 -4 23 C-4.66 23.33 -5.32 23.66 -6 24 C-9.33333333 20.66666667 -12.66666667 17.33333333 -16 14 C-15.26394531 13.40832031 -14.52789062 12.81664062 -13.76953125 12.20703125 C-12.79371094 11.41683594 -11.81789062 10.62664062 -10.8125 9.8125 C-9.36810547 8.64654297 -9.36810547 8.64654297 -7.89453125 7.45703125 C-5.09649579 5.08191073 -2.5544533 2.62917223 0 0 Z " fill="#A1E0E3" transform="translate(265,289)"/>
<path d="M0 0 C0.66 0.33 1.32 0.66 2 1 C-4.34140436 9.97820823 -4.34140436 9.97820823 -9 13 C-9.99 13 -10.98 13 -12 13 C-12.20625 13.5775 -12.4125 14.155 -12.625 14.75 C-14.5274665 17.863127 -16.86294893 19.20739939 -20 21 C-20.99 21 -21.98 21 -23 21 C-18.23124137 15.93828009 -13.09347549 11.53264387 -7.6484375 7.2109375 C-4.93418708 4.94505883 -2.46314668 2.53428449 0 0 Z " fill="#B39FEC" transform="translate(163,236)"/>
<path d="M0 0 C1.39572052 -0.02736707 2.79160221 -0.04655989 4.1875 -0.0625 C4.96480469 -0.07410156 5.74210938 -0.08570313 6.54296875 -0.09765625 C9 0 9 0 11.34960938 0.5 C13.93136131 0.98705121 16.24100913 1.11457413 18.86328125 1.09765625 C19.74951172 1.09443359 20.63574219 1.09121094 21.54882812 1.08789062 C22.46083984 1.07951172 23.37285156 1.07113281 24.3125 1.0625 C25.24384766 1.05798828 26.17519531 1.05347656 27.13476562 1.04882812 C29.42324373 1.03709234 31.71158808 1.02067363 34 1 C34 1.66 34 2.32 34 3 C22.22241184 5.14137966 11.52772002 3.64570623 0 1 C0 0.67 0 0.34 0 0 Z " fill="#AB98E7" transform="translate(159,382)"/>
<path d="M0 0 C0.66 0 1.32 0 2 0 C1.50583686 4.17187726 -0.67365874 5.87297679 -3.75 8.5625 C-5.04164063 9.70912109 -5.04164063 9.70912109 -6.359375 10.87890625 C-8.81184246 12.84886162 -11.26280564 14.45909742 -14 16 C-14.33 14.35 -14.66 12.7 -15 11 C-13 10 -11 9 -9 8 C-8.34 8.33 -7.68 8.66 -7 9 C-7 7.68 -7 6.36 -7 5 C-6.01 5 -5.02 5 -4 5 C-4 4.01 -4 3.02 -4 2 C-2.68 2 -1.36 2 0 2 C0 1.34 0 0.68 0 0 Z " fill="#94DADE" transform="translate(336,266)"/>
<path d="M0 0 C0 0.33 0 0.66 0 1 C-0.77077881 0.99476318 -1.54155762 0.98952637 -2.33569336 0.98413086 C-5.86962042 0.96318553 -9.40353436 0.95028437 -12.9375 0.9375 C-14.14986328 0.92912109 -15.36222656 0.92074219 -16.61132812 0.91210938 C-23.16625712 0.89434534 -29.50401275 1.11004274 -36 2 C-26.52183336 -4.31877776 -10.48555451 -3.49518484 0 0 Z " fill="#A5E1E6" transform="translate(387,218)"/>
<path d="M0 0 C0 3 0 3 -1.375 6.5625 C-4.00589482 14.0437175 -4.28057488 22.15403427 -5 30 C-5.99 29.67 -6.98 29.34 -8 29 C-7.85973717 26.68715544 -7.71264442 24.37472409 -7.5625 22.0625 C-7.48128906 20.77472656 -7.40007812 19.48695313 -7.31640625 18.16015625 C-7 15 -7 15 -6 14 C-5.87625 12.948125 -5.7525 11.89625 -5.625 10.8125 C-4.99329012 6.95906972 -3.98742507 4.33887411 -2 1 C-1.34 0.67 -0.68 0.34 0 0 Z " fill="#967FE1" transform="translate(148,293)"/>
<path d="M0 0 C0 3.67871799 -0.75309702 4.18085328 -3.1875 6.8125 C-4.13882813 7.85857422 -4.13882813 7.85857422 -5.109375 8.92578125 C-5.73328125 9.61027344 -6.3571875 10.29476563 -7 11 C-8.68728801 12.98381634 -10.34260309 14.99103405 -12 17 C-12.66 15.68 -13.32 14.36 -14 13 C-12.61240749 11.38869977 -11.21454377 9.78624159 -9.8125 8.1875 C-9.03519531 7.29417969 -8.25789062 6.40085937 -7.45703125 5.48046875 C-5.10582881 3.1068383 -2.93208816 1.56759953 0 0 Z " fill="#977CE7" transform="translate(139,259)"/>
<path d="M0 0 C1.32 1.32 2.64 2.64 4 4 C2.44298875 7.89252812 -0.01434106 10.06142977 -3.125 12.8125 C-4.59646484 14.11767578 -4.59646484 14.11767578 -6.09765625 15.44921875 C-7.53431641 16.71185547 -7.53431641 16.71185547 -9 18 C-9.80308594 18.72832031 -10.60617187 19.45664063 -11.43359375 20.20703125 C-12.13613281 20.83996094 -12.83867187 21.47289062 -13.5625 22.125 C-14.18253906 22.68445313 -14.80257813 23.24390625 -15.44140625 23.8203125 C-17 25 -17 25 -19 25 C-19 24.34 -19 23.68 -19 23 C-19.66 22.67 -20.32 22.34 -21 22 C-20.113125 21.7525 -19.22625 21.505 -18.3125 21.25 C-13.77267775 19.53685953 -10.96446734 16.96446734 -7.5625 13.5625 C-5.59449288 11.59449288 -3.84707649 10.16362671 -1.625 8.5625 C-0.325625 7.2940625 -0.325625 7.2940625 1 6 C1.02827577 2.74210981 1.02827577 2.74210981 0 0 Z " fill="#827FE1" transform="translate(326,228)"/>
<path d="M0 0 C0.33 0 0.66 0 1 0 C2.96077303 12.25483143 4.21225928 29.18161108 -3 40 C-3.32083937 35.40130238 -2.72126359 31.76179833 -1.5 27.3125 C0.74641107 18.30576267 0.24820898 9.22050384 0 0 Z " fill="#BAABEE" transform="translate(386,300)"/>
<path d="M0 0 C5.01113235 1.4317521 6.94469549 3.98445693 10 8 C9 10 9 10 6.63671875 10.88671875 C5.66347656 11.15097656 4.69023437 11.41523438 3.6875 11.6875 C2.72199219 11.95949219 1.75648438 12.23148438 0.76171875 12.51171875 C-1.95205711 12.99152353 -3.43665005 12.90721887 -6 12 C-5.01 12 -4.02 12 -3 12 C-3 11.34 -3 10.68 -3 10 C0.465 9.505 0.465 9.505 4 9 C3.35455571 5.51460083 1.89865603 2.97180943 0 0 Z " fill="#9BDCE1" transform="translate(405,228)"/>
<path d="M0 0 C3.66415876 2.06312314 6.70548128 4.35872176 9.8125 7.1875 C10.60269531 7.90292969 11.39289063 8.61835938 12.20703125 9.35546875 C12.79871094 9.89816406 13.39039063 10.44085938 14 11 C12 12 12 12 10.0546875 11.44140625 C8.97574219 11.00634766 8.97574219 11.00634766 7.875 10.5625 C7.15054688 10.27503906 6.42609375 9.98757813 5.6796875 9.69140625 C5.12539062 9.46324219 4.57109375 9.23507812 4 9 C3.67 9.66 3.34 10.32 3 11 C2.34 10.01 1.68 9.02 1 8 C1.99 7.01 2.98 6.02 4 5 C2.68 4.67 1.36 4.34 0 4 C0 2.68 0 1.36 0 0 Z " fill="#A088EC" transform="translate(209,268)"/>
<path d="M0 0 C0.99 0 1.98 0 3 0 C3.98669759 1.89192475 4.9640602 3.78871978 5.9375 5.6875 C6.48277344 6.74324219 7.02804687 7.79898437 7.58984375 8.88671875 C8.8470576 11.66234047 9.56069569 14.00272126 10 17 C8.125 16.4375 8.125 16.4375 6 15 C4.75 11.375 4.75 11.375 4 8 C3.01 8 2.02 8 1 8 C1 6.68 1 5.36 1 4 C0.01 3.34 -0.98 2.68 -2 2 C-1.34 1.34 -0.68 0.68 0 0 Z " fill="#AA94EB" transform="translate(374,275)"/>
<path d="M0 0 C0.66 0 1.32 0 2 0 C3.19942605 2.59925496 4.38472821 5.20345507 5.5625 7.8125 C5.90474609 8.55048828 6.24699219 9.28847656 6.59960938 10.04882812 C6.91865234 10.76103516 7.23769531 11.47324219 7.56640625 12.20703125 C7.86490479 12.8616333 8.16340332 13.51623535 8.47094727 14.19067383 C9 16 9 16 8 19 C4.11295913 14.74276476 2 8.72456601 2 3 C1.01 3 0.02 3 -1 3 C-1.33 4.65 -1.66 6.3 -2 8 C-2.66 8 -3.32 8 -4 8 C-2.25 2.25 -2.25 2.25 0 0 Z " fill="#A995E7" transform="translate(205,86)"/>
<path d="M0 0 C0.99 0.33 1.98 0.66 3 1 C-2.12376309 7.50856393 -8.50903012 14.25451506 -16 18 C-15.8125 16.1875 -15.8125 16.1875 -15 14 C-13.35178756 12.96986723 -11.68496298 11.96885372 -10 11 C-9.67 10.01 -9.34 9.02 -9 8 C-8.34 8 -7.68 8 -7 8 C-7 7.34 -7 6.68 -7 6 C-5.68 6 -4.36 6 -3 6 C-2.67 4.68 -2.34 3.36 -2 2 C-1.34 2 -0.68 2 0 2 C0 1.34 0 0.68 0 0 Z " fill="#9DDFE1" transform="translate(132,221)"/>
<path d="M0 0 C0.66 0.33 1.32 0.66 2 1 C0.71937515 2.7074998 -0.61767557 4.37373596 -2 6 C-2.66 6 -3.32 6 -4 6 C-4 6.99 -4 7.98 -4 9 C-2.576875 8.9071875 -2.576875 8.9071875 -1.125 8.8125 C-0.09375 8.874375 0.9375 8.93625 2 9 C2.99 10.485 2.99 10.485 4 12 C-4.57142857 11.14285714 -4.57142857 11.14285714 -8 9 C-6.4169423 4.7257442 -3.49431596 2.73468206 0 0 Z " fill="#A6E0E4" transform="translate(93,228)"/>
<path d="M0 0 C2.31 1.65 4.62 3.3 7 5 C6.01 5.66 5.02 6.32 4 7 C4 6.34 4 5.68 4 5 C0.95896628 5.42433029 -1.71741589 5.88283098 -4.5625 7.0625 C-7.21261187 8.0817738 -9.18631755 8.16078185 -12 8 C-9.58175817 5.58175817 -7.0519249 4.52596245 -4 3 C-2.64136599 2.03465478 -1.29656863 1.04722851 0 0 Z " fill="#AC9BEA" transform="translate(203,344)"/>
<path d="M0 0 C1 1 2 2 3 3 C3.8353125 3.7734375 3.8353125 3.7734375 4.6875 4.5625 C6 6 6 6 6 8 C7.65 7.67 9.3 7.34 11 7 C10.01 7.495 10.01 7.495 9 8 C9 9.32 9 10.64 9 12 C5.81293058 10.56438314 3.37830895 8.79733671 0.75 6.5 C0.04359375 5.8915625 -0.6628125 5.283125 -1.390625 4.65625 C-3 3 -3 3 -3 1 C-2.01 0.67 -1.02 0.34 0 0 Z " fill="#A28BE8" transform="translate(274,219)"/>
<path d="M0 0 C0.99 0.495 0.99 0.495 2 1 C2.6328125 3.06640625 2.6328125 3.06640625 3.125 5.5625 C3.29257813 6.38878906 3.46015625 7.21507812 3.6328125 8.06640625 C3.75398437 8.70449219 3.87515625 9.34257812 4 10 C4.66 10 5.32 10 6 10 C7.42258812 13.82320557 8.24042276 16.91281305 8 21 C4.6460054 19.3230027 4.10369445 15.54730324 2.875 12.1875 C2.59785156 11.46240234 2.32070312 10.73730469 2.03515625 9.99023438 C0.67218694 6.32095985 0 4.01878587 0 0 Z " fill="#A794E9" transform="translate(195,136)"/>
<path d="M0 0 C-5.75614317 4.20484217 -11.10164214 7.14086809 -18 9 C-18 8.01 -18 7.02 -18 6 C-16.02 6 -14.04 6 -12 6 C-11.67 5.01 -11.34 4.02 -11 3 C-9.35 3 -7.7 3 -6 3 C-6 2.01 -6 1.02 -6 0 C-3 -1 -3 -1 0 0 Z " fill="#AC99EC" transform="translate(219,373)"/>
<path d="M0 0 C4.82829428 1.48700714 7.7487769 4.21283256 11.3125 7.625 C12.13717773 8.3984375 12.13717773 8.3984375 12.97851562 9.1875 C14.32498054 10.45200618 15.66332535 11.72514922 17 13 C16.67 13.66 16.34 14.32 16 15 C13.5 13.6875 13.5 13.6875 11 12 C11 11.01 11 10.02 11 9 C10.443125 8.7525 9.88625 8.505 9.3125 8.25 C6.59628991 6.78177833 4.38391359 4.95603166 2 3 C1.01 2.34 0.02 1.68 -1 1 C-0.67 0.67 -0.34 0.34 0 0 Z " fill="#7F7AE1" transform="translate(257,312)"/>
<path d="M0 0 C0.66 0 1.32 0 2 0 C2.99 3.63 3.98 7.26 5 11 C0.9915966 8.9957983 -0.41409657 7.50944037 -3 4 C-1.625 2 -1.625 2 0 0 Z " fill="#A186F2" transform="translate(213,306)"/>
<path d="M0 0 C0.33 0.66 0.66 1.32 1 2 C-1.92791972 7.27025549 -4.15807163 8.91359701 -10 11 C-11.34013497 11.65288627 -12.67741528 12.31225595 -14 13 C-11.24160796 9.31999566 -8.37924618 6.50494111 -4.75 3.6875 C-3.41195313 2.64142578 -3.41195313 2.64142578 -2.046875 1.57421875 C-1.37140625 1.05472656 -0.6959375 0.53523438 0 0 Z " fill="#A994ED" transform="translate(369,280)"/>
<path d="M0 0 C-0.99 1.485 -0.99 1.485 -2 3 C-3.75128818 2.71617054 -5.50100003 2.42260471 -7.25 2.125 C-8.22453125 1.96257812 -9.1990625 1.80015625 -10.203125 1.6328125 C-12.77264117 1.05144152 -14.72071056 0.29159735 -17 -1 C-11.73665605 -3.63167197 -5.40673841 -1.34567711 0 0 Z " fill="#99DBDE" transform="translate(114,241)"/>
<path d="M0 0 C3.66060821 0.58536753 5.54535164 2.083239 8.25 4.5625 C8.95640625 5.20316406 9.6628125 5.84382813 10.390625 6.50390625 C10.92171875 6.99761719 11.4528125 7.49132812 12 8 C11.67 9.32 11.34 10.64 11 12 C10.34 12 9.68 12 9 12 C8.34 10.02 7.68 8.04 7 6 C5.35 5.67 3.7 5.34 2 5 C2 4.01 2 3.02 2 2 C1.34 2 0.68 2 0 2 C0 1.34 0 0.68 0 0 Z " fill="#AB9AE8" transform="translate(215,356)"/>
<path d="M0 0 C1.5625 1.8125 1.5625 1.8125 3 4 C2.67 4.99 2.34 5.98 2 7 C2.61875 7.20625 3.2375 7.4125 3.875 7.625 C6.83839739 9.54249243 7.01737197 11.70117732 8 15 C8.66 15.33 9.32 15.66 10 16 C9.01 16 8.02 16 7 16 C5.2109375 13.953125 5.2109375 13.953125 3.375 11.25 C2.76398438 10.36828125 2.15296875 9.4865625 1.5234375 8.578125 C0.16320567 6.2761942 -0.66792768 4.63367701 -1 2 C-0.67 1.34 -0.34 0.68 0 0 Z " fill="#AB96EB" transform="translate(120,344)"/>
<path d="M0 0 C0.66 0.33 1.32 0.66 2 1 C1.01 1.33 0.02 1.66 -1 2 C-1 2.66 -1 3.32 -1 4 C-2.5625 6.125 -2.5625 6.125 -5 8 C-8.75 8.25 -8.75 8.25 -12 8 C-8.2646504 3.81188075 -5.22578394 1.77479455 0 0 Z " fill="#9FDDE2" transform="translate(349,220)"/>
<path d="M0 0 C0.33 0 0.66 0 1 0 C1.12886183 7.40239645 0.79725902 14.63959083 0 22 C-0.66 22 -1.32 22 -2 22 C-2.33 22.99 -2.66 23.98 -3 25 C-4.20411563 21.38765311 -3.65241679 20.05231043 -2.625 16.4375 C-1.1615386 10.95119038 -0.36305044 5.65857926 0 0 Z " fill="#AB97EB" transform="translate(357,310)"/>
<path d="M0 0 C7.26 0.33 14.52 0.66 22 1 C22 1.33 22 1.66 22 2 C11.605 2.495 11.605 2.495 1 3 C0.67 2.01 0.34 1.02 0 0 Z " fill="#B7A5EF" transform="translate(306,352)"/>
<path d="M0 0 C1.0169313 2.65498232 1.13022151 3.69155375 0.00390625 6.359375 C-0.47175781 7.14828125 -0.94742187 7.9371875 -1.4375 8.75 C-1.91058594 9.54921875 -2.38367188 10.3484375 -2.87109375 11.171875 C-3.24363281 11.77515625 -3.61617188 12.3784375 -4 13 C-4.66 13 -5.32 13 -6 13 C-5.57476184 11.39253944 -5.13429874 9.78910164 -4.6875 8.1875 C-4.44386719 7.29417969 -4.20023437 6.40085937 -3.94921875 5.48046875 C-2.9799181 2.94752262 -2.04990396 1.7283504 0 0 Z " fill="#A18AEA" transform="translate(282,116)"/>
<path d="M0 0 C0.66 0.33 1.32 0.66 2 1 C1.51789063 1.47050781 1.03578125 1.94101562 0.5390625 2.42578125 C-0.09257812 3.04839844 -0.72421875 3.67101562 -1.375 4.3125 C-2.00148438 4.92738281 -2.62796875 5.54226563 -3.2734375 6.17578125 C-5.18086607 8.08812528 -5.18086607 8.08812528 -7 11 C-9.5 12.75 -9.5 12.75 -12 14 C-12.66 13.67 -13.32 13.34 -14 13 C-9.38 8.71 -4.76 4.42 0 0 Z " fill="#AAE4E9" transform="translate(281,275)"/>
<path d="M0 0 C2 1 2 1 3 3 C2.34 3 1.68 3 1 3 C1 3.66 1 4.32 1 5 C-0.6796875 6.32421875 -0.6796875 6.32421875 -2.875 7.6875 C-3.95394531 8.37392578 -3.95394531 8.37392578 -5.0546875 9.07421875 C-6.01761719 9.53248047 -6.01761719 9.53248047 -7 10 C-7.66 9.67 -8.32 9.34 -9 9 C-6.03 6.03 -3.06 3.06 0 0 Z " fill="#A1DFE3" transform="translate(300,258)"/>
<path d="M0 0 C4.08258878 0.60344834 7.1471303 1.94618418 10.75 3.9375 C11.71421875 4.46214844 12.6784375 4.98679688 13.671875 5.52734375 C16 7 16 7 17 9 C15.35 8.67 13.7 8.34 12 8 C12 7.34 12 6.68 12 6 C8.7 5.01 5.4 4.02 2 3 C2 2.34 2 1.68 2 1 C1.34 0.67 0.68 0.34 0 0 Z " fill="#A2DEE3" transform="translate(388,219)"/>
<path d="M0 0 C0 2.95269218 -0.45976055 4.63358701 -1.4375 7.375 C-2.54198295 10.56862288 -3.46030698 13.65390331 -4 17 C-4.33 17 -4.66 17 -5 17 C-5.3235827 10.93582051 -5.49955154 6.2493273 -2 1 C-1.34 0.67 -0.68 0.34 0 0 Z " fill="#B3A1EC" transform="translate(148,293)"/>
<path d="M0 0 C3.80359083 0.5282765 6.25506165 1.25506165 9 4 C10.25 7.1875 10.25 7.1875 11 10 C7.19364503 6.79239749 3.45436433 3.59253891 0 0 Z " fill="#AB97EC" transform="translate(248,344)"/>
<path d="M0 0 C0.226875 0.5775 0.45375 1.155 0.6875 1.75 C1.92985689 4.18970256 1.92985689 4.18970256 4.5 6 C6.92405976 7.93924781 7.88553115 9.16317019 9 12 C3.37413137 10.23186986 0.22159437 6.83239156 -3 2 C-2.01 1.34 -1.02 0.68 0 0 Z " fill="#8DBFEC" transform="translate(252,301)"/>
<path d="M0 0 C2.625 0.375 2.625 0.375 5 1 C2.14723863 3.93200474 -0.65079784 6.64315404 -4 9 C-2.25 2.25 -2.25 2.25 0 0 Z " fill="#95DADF" transform="translate(316,282)"/>
<path d="M0 0 C0.66 0 1.32 0 2 0 C1.40895235 4.84659077 0.02055843 8.60748167 -2 13 C-2.66 12.67 -3.32 12.34 -4 12 C-3.49143107 8.27049451 -2.87204577 5.27608009 -1 2 C-0.67 1.34 -0.34 0.68 0 0 Z " fill="#A994E9" transform="translate(302,140)"/>
<path d="M0 0 C0.66 0 1.32 0 2 0 C2.69699552 1.45381897 3.38233866 2.91322953 4.0625 4.375 C4.63677734 5.59316406 4.63677734 5.59316406 5.22265625 6.8359375 C5.47917969 7.55007812 5.73570312 8.26421875 6 9 C5.67 9.66 5.34 10.32 5 11 C4.34 10.67 3.68 10.34 3 10 C3 9.01 3 8.02 3 7 C2.34 7 1.68 7 1 7 C0.67 4.69 0.34 2.38 0 0 Z " fill="#AA95ED" transform="translate(218,117)"/>
<path d="M0 0 C1.4540625 0.0309375 1.4540625 0.0309375 2.9375 0.0625 C0.35965154 2.71002004 -1.97898098 5.00682065 -5.0625 7.0625 C-4.02286585 0.0820993 -4.02286585 0.0820993 0 0 Z " fill="#A692ED" transform="translate(201.0625,242.9375)"/>
<path d="M0 0 C-0.33 0.99 -0.66 1.98 -1 3 C-4.96 3.66 -8.92 4.32 -13 5 C-11.72500655 2.4500131 -10.81508648 2.34023585 -8.1875 1.375 C-7.50042969 1.11460937 -6.81335938 0.85421875 -6.10546875 0.5859375 C-4 0 -4 0 0 0 Z " fill="#A2DDE3" transform="translate(116,218)"/>
<path d="M0 0 C0.66 0 1.32 0 2 0 C2.33 0.99 2.66 1.98 3 3 C5.50447516 4.21869929 5.50447516 4.21869929 8 5 C8 5.66 8 6.32 8 7 C4.04179141 6.43454163 1.3340947 5.19097652 -2 3 C-1.34 2.67 -0.68 2.34 0 2 C0 1.34 0 0.68 0 0 Z " fill="#A58FEA" transform="translate(148,374)"/>
<path d="M0 0 C2.97 0.495 2.97 0.495 6 1 C4.35 2.65 2.7 4.3 1 6 C-0.65 4.35 -2.3 2.7 -4 1 C-2.68 1.33 -1.36 1.66 0 2 C0 1.34 0 0.68 0 0 Z " fill="#8FD2E6" transform="translate(273,319)"/>
<path d="M0 0 C0.33 0.99 0.66 1.98 1 3 C-1.97 5.31 -4.94 7.62 -8 10 C-8.66 9.67 -9.32 9.34 -10 9 C-8.89902432 7.87187697 -7.79408444 6.74762189 -6.6875 5.625 C-6.07261719 4.99851563 -5.45773438 4.37203125 -4.82421875 3.7265625 C-3 2 -3 2 0 0 Z " fill="#B4A3EE" transform="translate(150,248)"/>
<path d="M0 0 C1.98 0.495 1.98 0.495 4 1 C4.3125 3.3125 4.3125 3.3125 4 6 C1.5 7.8125 1.5 7.8125 -1 9 C-0.49396008 6.83125748 -0.00016187 5.00032373 1 3 C0.67 2.01 0.34 1.02 0 0 Z " fill="#9980E3" transform="translate(224,178)"/>
<path d="M0 0 C0.763125 0.5775 1.52625 1.155 2.3125 1.75 C2.3125 2.74 2.3125 3.73 2.3125 4.75 C-1.48338866 4.20773019 -3.15961993 2.54872437 -5.6875 -0.25 C-2.6875 -1.25 -2.6875 -1.25 0 0 Z " fill="#A18AEC" transform="translate(286.6875,372.25)"/>
<path d="M0 0 C1.98 0.495 1.98 0.495 4 1 C4 1.99 4 2.98 4 4 C2.02 4.99 2.02 4.99 0 6 C-1.125 2.25 -1.125 2.25 0 0 Z " fill="#9F84EC" transform="translate(219,366)"/>
<path d="M0 0 C2.75 0.0625 2.75 0.0625 6 1 C7.76511299 3.22511214 8.77297776 5.40437603 10 8 C6.05205855 6.32971708 3.18203882 3.8204435 0 1 C0 0.67 0 0.34 0 0 Z " fill="#BCA7EE" transform="translate(168,274)"/>
<path d="M0 0 C-4.455 2.97 -4.455 2.97 -9 6 C-9 4.35 -9 2.7 -9 1 C-5.19495213 -0.79682816 -4.29399165 -1.07349791 0 0 Z " fill="#96DCDF" transform="translate(354,256)"/>
<path d="M0 0 C0 2.64 0 5.28 0 8 C-2.31 6.35 -4.62 4.7 -7 3 C-2.5 0 -2.5 0 0 0 Z " fill="#A689EC" transform="translate(305,243)"/>
<path d="M0 0 C2.8045156 1.4022578 3.0442118 3.06070622 4.1875 5.9375 C4.55230469 6.83339844 4.91710937 7.72929688 5.29296875 8.65234375 C6 11 6 11 5 13 C1.68441485 8.61487125 0.45003347 5.62541841 0 0 Z " fill="#B2A1EB" transform="translate(297,90)"/>
<path d="M0 0 C0.66 0 1.32 0 2 0 C2.66 1.98 3.32 3.96 4 6 C3.34 6 2.68 6 2 6 C2 5.01 2 4.02 2 3 C1.01 3 0.02 3 -1 3 C-1.33 4.65 -1.66 6.3 -2 8 C-2.66 8 -3.32 8 -4 8 C-2.25 2.25 -2.25 2.25 0 0 Z " fill="#B2A2E9" transform="translate(205,86)"/>
<path d="M0 0 C0.66 1.32 1.32 2.64 2 4 C1.01 4.33 0.02 4.66 -1 5 C-2.21869929 7.50447516 -2.21869929 7.50447516 -3 10 C-3.66 10 -4.32 10 -5 10 C-3.66511872 6.40608886 -2.03977277 3.24509304 0 0 Z " fill="#AB98E9" transform="translate(124,274)"/>
<path d="M0 0 C0.66 0.33 1.32 0.66 2 1 C2 1.99 2 2.98 2 4 C0.03533587 5.06775224 -1.96855359 6.06553465 -4 7 C-4.66 6.67 -5.32 6.34 -6 6 C-4.02 4.02 -2.04 2.04 0 0 Z " fill="#A891EC" transform="translate(187,215)"/>
<path d="M0 0 C0.99 0 1.98 0 3 0 C2.43454163 3.95820859 1.19097652 6.6659053 -1 10 C-1.33 8.68 -1.66 7.36 -2 6 C-1.34 6 -0.68 6 0 6 C0 4.02 0 2.04 0 0 Z " fill="#B09DEE" transform="translate(379,343)"/>
<path d="M0 0 C1.32 0.99 2.64 1.98 4 3 C0.7 3.66 -2.6 4.32 -6 5 C-5 2 -5 2 -2.6875 0.625 C-1.800625 0.41875 -0.91375 0.2125 0 0 Z " fill="#9CDDE2" transform="translate(370,245)"/>
<path d="M0 0 C3.72114571 2.31537955 6.61229661 4.28579473 9 8 C7.35 8 5.7 8 4 8 C2.66666667 5.33333333 1.33333333 2.66666667 0 0 Z " fill="#B6A3ED" transform="translate(265,174)"/>
<path d="M0 0 C-0.57344937 2.86724686 -0.8614515 3.8614515 -3 6 C-5.125 5.625 -5.125 5.625 -7 5 C-2.25 0 -2.25 0 0 0 Z " fill="#94D9DF" transform="translate(290,269)"/>
<path d="M0 0 C0.66 0.33 1.32 0.66 2 1 C-3.0940919 7.70459519 -3.0940919 7.70459519 -6.875 8.9375 C-7.57625 8.958125 -8.2775 8.97875 -9 9 C-6 6 -3 3 0 0 Z " fill="#BEADEF" transform="translate(212,193)"/>
<path d="M0 0 C1.31611677 0.95336021 2.62778961 1.91285774 3.9375 2.875 C4.66839844 3.40867188 5.39929688 3.94234375 6.15234375 4.4921875 C8 6 8 6 9 8 C5.41209425 7.70100785 4.21833224 7.23013399 1.6875 4.5625 C0 2 0 2 0 0 Z " fill="#AE9AEF" transform="translate(256,166)"/>
<path d="M0 0 C1.65 0.33 3.3 0.66 5 1 C5 1.99 5 2.98 5 4 C2.03 3.505 2.03 3.505 -1 3 C-0.67 2.01 -0.34 1.02 0 0 Z " fill="#9D84EC" transform="translate(295,378)"/>
<path d="M0 0 C0.99 0 1.98 0 3 0 C3.33 1.32 3.66 2.64 4 4 C2.02 4.99 2.02 4.99 0 6 C-0.38218767 4.34385343 -0.71395102 2.67542976 -1 1 C-0.67 0.67 -0.34 0.34 0 0 Z " fill="#85D8DB" transform="translate(322,276)"/>
<path d="M0 0 C0.66 0.33 1.32 0.66 2 1 C-0.475 4.465 -0.475 4.465 -3 8 C-3.99 7.34 -4.98 6.68 -6 6 C-4.02 4.02 -2.04 2.04 0 0 Z " fill="#A794E8" transform="translate(220,186)"/>
<path d="M0 0 C0.99 1.32 1.98 2.64 3 4 C1.02 5.32 -0.96 6.64 -3 8 C-2.67 6.02 -2.34 4.04 -2 2 C-1.34 2 -0.68 2 0 2 C0 1.34 0 0.68 0 0 Z " fill="#A28AE9" transform="translate(165,272)"/>
<path d="M0 0 C1.31611677 0.95336021 2.62778961 1.91285774 3.9375 2.875 C4.66839844 3.40867187 5.39929688 3.94234375 6.15234375 4.4921875 C8 6 8 6 9 8 C3.5 6.53333333 3.5 6.53333333 1.125 4 C0 2 0 2 0 0 Z " fill="#BFB2F0" transform="translate(195,255)"/>
<path d="M0 0 C2.0625 0.4375 2.0625 0.4375 4 1 C2.1875 3 2.1875 3 0 5 C-0.99 5 -1.98 5 -3 5 C-1.125 1.125 -1.125 1.125 0 0 Z " fill="#A28DE7" transform="translate(154,244)"/>
<path d="M0 0 C2.4375 0.375 2.4375 0.375 5 1 C5.33 1.66 5.66 2.32 6 3 C4.35 3.66 2.7 4.32 1 5 C0.34 4.01 -0.32 3.02 -1 2 C-0.67 1.34 -0.34 0.68 0 0 Z " fill="#9E83E8" transform="translate(283,192)"/>
<path d="M0 0 C1.33333333 2.66666667 2.66666667 5.33333333 4 8 C0.63279613 6.60667426 -0.9859524 5.0210714 -3 2 C-2.01 2 -1.02 2 0 2 C0 1.34 0 0.68 0 0 Z " fill="#B9A4F4" transform="translate(284,146)"/>
<path d="M0 0 C0.33 0.99 0.66 1.98 1 3 C2.32 3 3.64 3 5 3 C5.99 4.98 6.98 6.96 8 9 C5.04709864 7.62901008 2.39580248 6.22467373 0 4 C0 2.68 0 1.36 0 0 Z " fill="#BCAFEA" transform="translate(271,137)"/>
<path d="M0 0 C0.66 0 1.32 0 2 0 C1.67 0.99 1.34 1.98 1 3 C-2.5625 4.1875 -2.5625 4.1875 -6 5 C-6 4.01 -6 3.02 -6 2 C-4.02 2 -2.04 2 0 2 C0 1.34 0 0.68 0 0 Z " fill="#A28DE8" transform="translate(207,377)"/>
<path d="M0 0 C2.97 1.98 2.97 1.98 6 4 C5.01 4.495 5.01 4.495 4 5 C3.67 5.66 3.34 6.32 3 7 C2.34 6.67 1.68 6.34 1 6 C0.375 2.9375 0.375 2.9375 0 0 Z " fill="#A890EF" transform="translate(240,295)"/>
<path d="M0 0 C0.75 1.75 0.75 1.75 1 4 C-0.9375 6.25 -0.9375 6.25 -3 8 C-3.75 6.25 -3.75 6.25 -4 4 C-2.0625 1.75 -2.0625 1.75 0 0 Z " fill="#A48CEB" transform="translate(129,268)"/>
<path d="M0 0 C0.66 0.33 1.32 0.66 2 1 C0.25 3.0625 0.25 3.0625 -2 5 C-4.25 4.75 -4.25 4.75 -6 4 C-4.02 2.68 -2.04 1.36 0 0 Z " fill="#A0DDE3" transform="translate(101,223)"/>
<path d="M0 0 C1 2 1 2 0.0625 5.125 C-0.288125 6.07375 -0.63875 7.0225 -1 8 C-1.66 7.67 -2.32 7.34 -3 7 C-3 6.34 -3 5.68 -3 5 C-3.66 4.67 -4.32 4.34 -5 4 C-3.35 2.68 -1.7 1.36 0 0 Z " fill="#A58DED" transform="translate(199,205)"/>
<path d="M0 0 C1.24546405 2.49092811 0.7767578 3.41080733 0 6 C-4 6 -4 6 -6 5 C-4.02 3.35 -2.04 1.7 0 0 Z " fill="#A893EE" transform="translate(345,343)"/>
<path d="M0 0 C1.98 1.65 3.96 3.3 6 5 C4.02 5.99 4.02 5.99 2 7 C1.34 4.69 0.68 2.38 0 0 Z " fill="#B19AEE" transform="translate(293,341)"/>
<path d="M0 0 C2.5 1.3125 2.5 1.3125 5 3 C5 3.99 5 4.98 5 6 C3.0625 5.25 3.0625 5.25 1 4 C0.25 1.875 0.25 1.875 0 0 Z " fill="#AB99E8" transform="translate(234,290)"/>
<path d="M0 0 C1.98 0 3.96 0 6 0 C4.515 1.98 4.515 1.98 3 4 C2.01 3.67 1.02 3.34 0 3 C0 2.01 0 1.02 0 0 Z " fill="#A893EC" transform="translate(155,281)"/>
<path d="M0 0 C1.65 1.65 3.3 3.3 5 5 C3.35 5 1.7 5 0 5 C-0.33 4.01 -0.66 3.02 -1 2 C-0.67 1.34 -0.34 0.68 0 0 Z " fill="#A690EA" transform="translate(204,263)"/>
<path d="M0 0 C-0.99 1.485 -0.99 1.485 -2 3 C-4.31 2.67 -6.62 2.34 -9 2 C-5.5647952 -0.29013653 -4.014669 -0.17842973 0 0 Z " fill="#AAE1E7" transform="translate(114,241)"/>
<path d="M0 0 C0.66 0.33 1.32 0.66 2 1 C-0.64 2.98 -3.28 4.96 -6 7 C-5 3 -5 3 -2.5625 1.1875 C-1.716875 0.795625 -0.87125 0.40375 0 0 Z " fill="#AFE5E9" transform="translate(122,232)"/>
<path d="M0 0 C3.82946843 1.45255699 5.12050295 3.42895561 7 7 C6.01 7.33 5.02 7.66 4 8 C3.71125 7.236875 3.4225 6.47375 3.125 5.6875 C2.03730987 2.84970692 2.03730987 2.84970692 0 0 Z " fill="#BCE9ED" transform="translate(408,230)"/>
</svg>
